<svg width="24" height="24" viewBox="0 0 24 24" fill="none" xmlns="http://www.w3.org/2000/svg">
<g id="hidden 1">
<path id="eye-slash-Filled" d="M22.014 10.0464C21.2121 8.72456 20.222 7.52643 19.0751 6.48964L21.6653 3.89934C21.7688 3.79631 21.851 3.67385 21.9072 3.539C21.9633 3.40414 21.9923 3.25954 21.9925 3.11346C21.9927 2.96738 21.9641 2.82271 21.9082 2.68771C21.8524 2.55272 21.7705 2.43007 21.6672 2.32677C21.5639 2.22348 21.4413 2.14158 21.3063 2.08575C21.1713 2.02993 21.0266 2.00129 20.8806 2.00147C20.7345 2.00164 20.5899 2.03063 20.455 2.08678C20.3202 2.14292 20.1977 2.22512 20.0947 2.32866L2.32261 20.1006C2.21842 20.2035 2.1356 20.326 2.07893 20.461C2.02225 20.596 1.99283 20.7409 1.99237 20.8873C1.99191 21.0338 2.02041 21.1788 2.07623 21.3142C2.13205 21.4496 2.21409 21.5726 2.31764 21.6761C2.42118 21.7797 2.54417 21.8617 2.67955 21.9176C2.81492 21.9734 2.96 22.0019 3.10643 22.0015C3.25286 22.001 3.39776 21.9716 3.53279 21.9149C3.66781 21.8583 3.7903 21.7755 3.8932 21.6713L6.70911 18.8554C8.34175 19.8316 10.1118 20.3319 11.9949 20.3319C17.3599 20.3319 20.57 16.3332 22.0139 13.9563C22.3683 13.3657 22.5555 12.69 22.5555 12.0013C22.5555 11.3127 22.3684 10.6369 22.014 10.0464ZM11.995 16.9997C11.0559 16.9962 10.1371 16.7253 9.34632 16.2187L10.9829 14.5818C11.4033 14.7495 11.8584 14.8113 12.3083 14.762C12.7582 14.7127 13.1892 14.5536 13.5633 14.2989C13.9374 14.0441 14.2432 13.7014 14.4539 13.3009C14.6647 12.9003 14.7739 12.4542 14.7719 12.0016C14.7737 11.9531 14.77 11.9046 14.7608 11.857C14.595 11.9515 14.4074 12.0013 14.2166 12.0016C14.0368 11.9979 13.8607 11.9493 13.7044 11.8603L16.217 9.34782C16.7224 10.1408 16.9917 11.0612 16.9934 12.0016C16.9914 13.3266 16.4641 14.5967 15.5272 15.5336C14.5902 16.4705 13.32 16.9977 11.995 16.9997ZM3.46448 16.0221C2.91769 15.374 2.42368 14.6832 1.9872 13.9563C1.63384 13.3658 1.4463 12.691 1.44435 12.0028C1.4424 11.3147 1.62611 10.6388 1.97611 10.0464C3.42007 7.66951 6.64126 3.67072 11.995 3.67072C13.0303 3.66881 14.06 3.82229 15.0496 4.12604C15.1426 4.15513 15.2268 4.20694 15.2947 4.27678C15.3626 4.34662 15.412 4.43228 15.4384 4.52601C15.4611 4.619 15.4587 4.71636 15.4314 4.80809C15.404 4.89983 15.3528 4.98264 15.2829 5.04803L13.1836 7.14739C12.7943 7.05355 12.3955 7.00505 11.995 7.00286C10.67 7.00485 9.39981 7.53211 8.46287 8.46905C7.52592 9.40599 6.99867 10.6762 6.99667 12.0012C6.99405 12.4056 7.04257 12.8087 7.1411 13.2009L4.28645 16.0559C4.2347 16.1095 4.17252 16.1519 4.10375 16.1806C4.03499 16.2093 3.96108 16.2235 3.88658 16.2225H3.86435C3.7875 16.2184 3.71233 16.1985 3.64353 16.164C3.57472 16.1295 3.51377 16.0812 3.46448 16.0221Z" fill="#A4A4A4"/>
</g>
</svg>
