<svg width="24" height="24" viewBox="0 0 24 24" fill="none" xmlns="http://www.w3.org/2000/svg">
<g id="eye 1">
<path id="eye-Filled" d="M21.9586 10.3417C20.5334 7.9774 17.3515 4 11.993 4C6.64572 4 3.45273 7.9774 2.03853 10.3417C1.68618 10.9271 1.5 11.5975 1.5 12.2807C1.5 12.964 1.68618 13.6343 2.03853 14.2197C3.45273 16.5951 6.64572 20.5725 11.993 20.5725C17.3515 20.5725 20.5334 16.5951 21.9586 14.2197C22.3098 13.6357 22.4968 12.9677 22.5 12.2862C22.4954 11.6015 22.3085 10.9303 21.9586 10.3417ZM11.993 17.258C11.0097 17.258 10.0485 16.9664 9.23088 16.4201C8.41328 15.8738 7.77604 15.0973 7.39975 14.1889C7.02345 13.2804 6.92499 12.2807 7.11683 11.3163C7.30866 10.3519 7.78217 9.466 8.47748 8.77069C9.17279 8.07538 10.0587 7.60187 11.0231 7.41003C11.9875 7.21819 12.9872 7.31665 13.8956 7.69295C14.8041 8.06925 15.5806 8.70649 16.1269 9.52409C16.6732 10.3417 16.9648 11.3029 16.9648 12.2862C16.9628 13.6042 16.4383 14.8677 15.5064 15.7996C14.5744 16.7316 13.311 17.256 11.993 17.258ZM14.744 12.1317C14.7533 12.1827 14.757 12.2345 14.7551 12.2862C14.7556 12.9151 14.5417 13.5253 14.1486 14.0162C13.7555 14.5071 13.2068 14.8492 12.593 14.9862C11.9792 15.1232 11.3371 15.0468 10.7726 14.7696C10.2081 14.4924 9.75505 14.031 9.48813 13.4616C9.22121 12.8922 9.15642 12.2488 9.30446 11.6376C9.45251 11.0264 9.80453 10.484 10.3024 10.0999C10.8003 9.71571 11.4143 9.51282 12.0431 9.52468C12.6718 9.53653 13.2777 9.76243 13.7608 10.1651C13.5645 10.2532 13.3977 10.3958 13.2802 10.576C13.1627 10.7562 13.0994 10.9663 13.0979 11.1814C13.0988 11.4742 13.2155 11.7546 13.4225 11.9616C13.6295 12.1686 13.91 12.2853 14.2027 12.2862C14.3942 12.2875 14.5821 12.2339 14.744 12.1317Z" fill="#A4A4A4"/>
</g>
</svg>
