<svg width="30" height="30" viewBox="0 0 30 30" fill="none" xmlns="http://www.w3.org/2000/svg">
<path d="M20.875 4H8.95833C5.66764 4 3 6.46243 3 9.5V20.5C3 23.5376 5.66764 26 8.95833 26H20.875C24.1657 26 26.8333 23.5376 26.8333 20.5V9.5C26.8333 6.46243 24.1657 4 20.875 4Z" stroke="white" stroke-width="1.3" stroke-linecap="round" stroke-linejoin="round"/>
<path d="M21.4692 8.94922H21.4802" stroke="white" stroke-linecap="round" stroke-linejoin="round"/>
<path d="M19.5858 14.6081C19.7328 15.5236 19.5634 16.4586 19.1017 17.28C18.6399 18.1015 17.9093 18.7677 17.0137 19.1838C16.1182 19.5998 15.1033 19.7447 14.1134 19.5976C13.1235 19.4506 12.2091 19.0192 11.5001 18.3648C10.7912 17.7104 10.3238 16.8663 10.1645 15.9525C10.0053 15.0388 10.1622 14.102 10.6129 13.2753C11.0637 12.4487 11.7854 11.7742 12.6753 11.348C13.5652 10.9217 14.5781 10.7654 15.5699 10.9011C16.5815 11.0396 17.5181 11.4747 18.2412 12.1422C18.9644 12.8098 19.4358 13.6743 19.5858 14.6081Z" stroke="white" stroke-width="1.3" stroke-linecap="round" stroke-linejoin="round"/>
</svg>
