<svg width="30" height="30" viewBox="0 0 30 30" fill="none" xmlns="http://www.w3.org/2000/svg">
<path fill-rule="evenodd" clip-rule="evenodd" d="M7.77865 6.31581C7.77865 7.59479 6.70891 8.63162 5.38933 8.63162C4.06974 8.63162 3 7.59479 3 6.31581C3 5.03682 4.06974 4 5.38933 4C6.70891 4 7.77865 5.03682 7.77865 6.31581ZM19.7253 10.9472C21.6263 10.9472 23.4495 11.6792 24.7938 12.9821C26.138 14.285 26.8932 16.0521 26.8932 17.8947V26H22.1146V17.8947C22.1146 17.2805 21.8629 16.6914 21.4148 16.2571C20.9667 15.8229 20.359 15.5789 19.7253 15.5789C19.0916 15.5789 18.4838 15.8229 18.0358 16.2571C17.5877 16.6914 17.3359 17.2805 17.3359 17.8947V26H12.5573V17.8947C12.5573 16.0521 13.3125 14.285 14.6567 12.9821C16.001 11.6792 17.8242 10.9472 19.7253 10.9472ZM7.77865 19.0529V12.1055H3V26.0003H7.77865V19.0529Z" fill="white"/>
</svg>
