<svg width="53" height="53" viewBox="0 0 53 53" fill="none" xmlns="http://www.w3.org/2000/svg">
<g clip-path="url(#clip0_5543_13462)">
<path fill-rule="evenodd" clip-rule="evenodd" d="M4.06494 2.27295C2.80294 2.27295 1.77978 3.2961 1.77978 4.55811V6.8435H18.5006C19.0896 6.8435 19.567 6.36604 19.567 5.77709V3.33959C19.567 2.95934 19.649 2.59823 19.7962 2.27295H4.06494ZM22.176 2.27295C22.1696 2.27311 22.1633 2.27318 22.1569 2.27318C21.5679 2.27318 21.0905 2.75062 21.0905 3.33959V5.77709C21.0905 7.20741 19.9309 8.36694 18.5006 8.36694H1.77978V36.6012H11.5962C12.0169 36.6012 12.3579 36.9422 12.3579 37.3629C12.3579 37.7836 12.0169 38.1246 11.5962 38.1246H1.77978V39.5972C1.77978 40.8592 2.80294 41.8823 4.06494 41.8823H20.5069C20.5144 41.8822 20.5219 41.8822 20.5293 41.8823H31.9829C31.9903 41.8822 31.9978 41.8822 32.0053 41.8823H48.4478C49.7098 41.8823 50.7329 40.8592 50.7329 39.5972V38.1246H15.1509C14.7302 38.1246 14.3891 37.7836 14.3891 37.3629C14.3891 36.9422 14.7302 36.6012 15.1509 36.6012H50.7329V8.36682H44.3098C43.8891 8.36682 43.5481 8.02579 43.5481 7.6051C43.5481 7.18442 43.8891 6.84338 44.3098 6.84338H50.7329V4.55811C50.7329 3.2961 49.7098 2.27295 48.4478 2.27295H32.7163C32.8635 2.5982 32.9454 2.95927 32.9454 3.33948V5.77698C32.9454 6.36593 33.4229 6.84338 34.0118 6.84338H40.7552C41.1759 6.84338 41.5169 7.18442 41.5169 7.6051C41.5169 8.02579 41.1759 8.36682 40.7552 8.36682H34.0118C32.5815 8.36682 31.422 7.20729 31.422 5.77698V3.33948C31.422 2.75053 30.9445 2.27307 30.3556 2.27307C30.351 2.27307 30.3465 2.27303 30.3419 2.27295H22.176ZM32.5909 43.4058H48.4478C50.5511 43.4058 52.2563 41.7006 52.2563 39.5972V4.55811C52.2563 2.45473 50.5511 0.749512 48.4478 0.749512H4.06494C1.96157 0.749512 0.256346 2.45473 0.256346 4.55811V37.3448C0.256205 37.3508 0.256134 37.3569 0.256134 37.3629C0.256134 37.369 0.256205 37.375 0.256346 37.3811V39.5972C0.256346 41.7006 1.96157 43.4058 4.06494 43.4058H19.9214C20.1644 44.672 19.9552 45.9905 19.3197 47.126L17.6525 50.1041C16.9894 51.2888 17.8456 52.7496 19.2034 52.7496H33.3088C34.6666 52.7496 35.5228 51.2888 34.8597 50.1041L33.1926 47.126C32.557 45.9905 32.3478 44.672 32.5909 43.4058ZM31.0457 43.4058H21.4665C21.6945 44.934 21.4128 46.5055 20.649 47.8701L18.9819 50.8482C18.8871 51.0175 19.0095 51.2262 19.2034 51.2262H33.3088C33.5027 51.2262 33.6251 51.0176 33.5304 50.8483L31.8632 47.8701C31.0994 46.5055 30.8177 44.934 31.0457 43.4058ZM42.7897 14.4137C42.0182 14.4137 41.3928 15.0391 41.3928 15.8107C41.3928 16.5822 42.0182 17.2076 42.7897 17.2076C43.5613 17.2076 44.1867 16.5821 44.1867 15.8107C44.1867 15.0391 43.5612 14.4137 42.7897 14.4137ZM39.8693 15.8107C39.8693 14.1978 41.1768 12.8903 42.7897 12.8903C44.4026 12.8903 45.7101 14.1978 45.7101 15.8107C45.7101 17.4235 44.4026 18.731 42.7897 18.731C42.2595 18.731 41.7624 18.5898 41.3338 18.3428L32.7392 26.9374C32.986 27.3658 33.1271 27.8628 33.1271 28.3927C33.1271 30.0056 31.8196 31.3131 30.2067 31.3131C28.5938 31.3131 27.2863 30.0056 27.2863 28.3927C27.2863 27.8627 27.4275 27.3657 27.6743 26.9372L21.1268 20.3888C20.6974 20.637 20.1989 20.7791 19.6672 20.7791C19.139 20.7791 18.6436 20.6389 18.2161 20.3937L12.2549 26.3549C12.5016 26.7833 12.6427 27.2803 12.6427 27.8102C12.6427 29.4232 11.3352 30.7305 9.72239 30.7305C8.10951 30.7305 6.80196 29.4232 6.80196 27.8102C6.80196 26.1973 8.10946 24.8898 9.72239 24.8898C10.2523 24.8898 10.7492 25.0309 11.1776 25.2776L17.137 19.3182C16.8888 18.8889 16.7468 18.3904 16.7468 17.8588C16.7468 16.2459 18.0543 14.9384 19.6672 14.9384C21.2801 14.9384 22.5875 16.2459 22.5875 17.8588C22.5875 18.3869 22.4474 18.8823 22.2022 19.3097L28.7516 25.86C29.18 25.6134 29.6769 25.4723 30.2067 25.4723C30.7366 25.4723 31.2335 25.6134 31.662 25.8602L40.2568 17.2653C40.0103 16.837 39.8693 16.3403 39.8693 15.8107ZM29.2091 27.4149C29.2125 27.4116 29.2158 27.4083 29.2192 27.4049C29.2225 27.4016 29.2258 27.3982 29.2291 27.3948C29.481 27.1479 29.8261 26.9957 30.2067 26.9957C30.9782 26.9957 31.6037 27.6212 31.6037 28.3927C31.6037 29.1642 30.9782 29.7896 30.2067 29.7896C29.4352 29.7896 28.8098 29.1642 28.8098 28.3927C28.8098 28.012 28.9621 27.6668 29.2091 27.4149ZM18.6952 18.8622C18.6912 18.8579 18.6871 18.8537 18.6829 18.8496C18.678 18.8446 18.673 18.8398 18.6679 18.835C18.4219 18.5832 18.2702 18.2387 18.2702 17.8588C18.2702 17.0872 18.8957 16.4618 19.6672 16.4618C20.4386 16.4618 21.0641 17.0872 21.0641 17.8588C21.0641 18.6303 20.4387 19.2557 19.6672 19.2557C19.2894 19.2557 18.9467 19.1058 18.6952 18.8622ZM9.72239 26.4132C8.95084 26.4132 8.3254 27.0387 8.3254 27.8102C8.3254 28.5817 8.95079 29.2071 9.72239 29.2071C10.4939 29.2071 11.1193 28.5817 11.1193 27.8102C11.1193 27.0386 10.4938 26.4132 9.72239 26.4132Z" fill="url(#paint0_linear_5543_13462)"/>
</g>
<defs>
<linearGradient id="paint0_linear_5543_13462" x1="26.2562" y1="0.749512" x2="38.5564" y2="67.2799" gradientUnits="userSpaceOnUse">
<stop stop-color="#A175FF"/>
<stop offset="1" stop-color="#563AFF"/>
</linearGradient>
<clipPath id="clip0_5543_13462">
<rect width="52" height="52" fill="white" transform="translate(0.254883 0.75)"/>
</clipPath>
</defs>
</svg>
