<svg width="30" height="30" viewBox="0 0 30 30" fill="none" xmlns="http://www.w3.org/2000/svg">
<path fill-rule="evenodd" clip-rule="evenodd" d="M9.80858 25.9934C11.0297 24.9049 11.868 23.3547 12.2772 21.7649C12.4422 21.1382 13.1155 18.5721 13.1155 18.5721C13.5512 19.4099 14.8383 20.1157 16.1914 20.1157C20.2442 20.1157 23.1617 16.3952 23.1617 11.7577C23.1617 7.31814 19.538 4 14.8779 4C9.07591 4 6 7.89205 6 12.1271C6 14.093 7.0495 16.5469 8.72607 17.3253C8.9769 17.4507 9.11551 17.3913 9.17492 17.1406C9.21452 16.9493 9.44554 16.0456 9.55116 15.6168C9.58416 15.4849 9.57096 15.3595 9.45875 15.2276C8.90429 14.5547 8.45545 13.3145 8.45545 12.1667C8.45545 9.2048 10.6997 6.33523 14.5215 6.33523C17.8218 6.33523 20.132 8.57811 20.132 11.7973C20.132 15.4321 18.297 17.952 15.9076 17.952C14.5875 17.952 13.5974 16.8636 13.9208 15.5244C14.3036 13.928 15.0363 12.2063 15.0363 11.0585C15.0363 10.0294 14.4884 9.17181 13.3333 9.17181C11.9802 9.17181 10.9043 10.5637 10.9043 12.4372C10.9043 13.6246 11.3003 14.4294 11.3003 14.4294C11.3003 14.4294 9.967 20.0564 9.72277 21.1052C9.45215 22.2663 9.55776 23.8957 9.67657 24.9577L9.79538 26L9.80858 25.9934Z" fill="white"/>
</svg>
