<svg width="30" height="30" viewBox="0 0 30 30" fill="none" xmlns="http://www.w3.org/2000/svg">
<path d="M28.9733 4.01233C27.7992 4.8405 26.4992 5.47392 25.1235 5.8882C24.3851 5.03917 23.4037 4.43739 22.3121 4.16427C21.2206 3.89115 20.0715 3.95985 19.0202 4.36109C17.969 4.76232 17.0663 5.47673 16.4344 6.4077C15.8024 7.33866 15.4716 8.44126 15.4866 9.56637V10.7924C13.332 10.8483 11.197 10.3704 9.27176 9.4014C7.34653 8.43237 5.69082 7.00224 4.45212 5.23839C4.45212 5.23839 -0.452116 16.2729 10.5824 21.1771C8.05737 22.8911 5.0494 23.7506 2 23.6293C13.0345 29.7596 26.5212 23.6293 26.5212 9.52959C26.52 9.18808 26.4872 8.84741 26.4231 8.51196C27.6744 7.27793 28.5574 5.71988 28.9733 4.01233Z" fill="white"/>
</svg>
