<svg width="30" height="30" viewBox="0 0 30 30" fill="none" xmlns="http://www.w3.org/2000/svg">
<path fill-rule="evenodd" clip-rule="evenodd" d="M28.4257 5.64987C28.874 6.14958 29.1924 6.76837 29.3487 7.44373C29.7662 9.9464 29.9689 12.4854 29.9541 15.0285C29.9624 17.5335 29.7598 20.0341 29.3487 22.4994C29.1924 23.1747 28.874 23.7935 28.4257 24.2932C27.9774 24.7929 27.4151 25.1559 26.7955 25.3454C24.5319 26 15.4774 26 15.4774 26C15.4774 26 6.42292 26 4.1593 25.3454C3.55236 25.1658 2.99851 24.82 2.55126 24.3414C2.10401 23.8628 1.77849 23.2676 1.60614 22.6132C1.18864 20.1105 0.985985 17.5715 1.00075 15.0285C0.989218 12.5045 1.19186 9.98462 1.60614 7.50065C1.76247 6.82529 2.08086 6.20651 2.52915 5.70679C2.97745 5.20707 3.53976 4.84412 4.1593 4.65459C6.42292 4 15.4774 4 15.4774 4C15.4774 4 24.5319 4 26.7955 4.59767C27.4151 4.7872 27.9774 5.15015 28.4257 5.64987ZM20.6483 14.9996L12.3755 19.3996V10.5996L20.6483 14.9996Z" fill="white"/>
</svg>
